<svg xmlns="http://www.w3.org/2000/svg" version="1.1" xmlns:xlink="http://www.w3.org/1999/xlink" viewBox="0 0 200 200"><rect width="200" height="200" fill="url('#gradient')"></rect><defs><linearGradient id="gradient" gradientTransform="rotate(0 0.5 0.5)"><stop offset="0%" stop-color="#30d5fa"></stop><stop offset="100%" stop-color="#dd6fff"></stop></linearGradient></defs><g><g fill="#ffffff" transform="matrix(6.765509518477043,0,0,6.765509518477043,32.142641445023216,148.10702850944116)" stroke="#c9c9c9" stroke-width="0.15"><path d="M4.73-14.22L4.73 0L1.31 0L1.31-14.22L4.73-14.22ZM18.75-7.60L18.75-1.76Q17.96-0.88 16.44-0.34Q14.91 0.20 13.10 0.20L13.10 0.20Q10.30 0.20 8.63-1.51Q6.96-3.22 6.85-6.27L6.85-6.27L6.84-7.50Q6.84-9.60 7.58-11.17Q8.32-12.73 9.70-13.58Q11.08-14.42 12.90-14.42L12.90-14.42Q15.56-14.42 17.03-13.21Q18.50-11.99 18.74-9.58L18.74-9.58L15.44-9.58Q15.26-10.77 14.68-11.28Q14.09-11.79 13.02-11.79L13.02-11.79Q11.73-11.79 11.03-10.69Q10.32-9.60 10.31-7.57L10.31-7.57L10.31-6.71Q10.31-4.58 11.04-3.51Q11.77-2.44 13.33-2.44L13.33-2.44Q14.67-2.44 15.32-3.04L15.32-3.04L15.32-5.24L12.94-5.24L12.94-7.60L18.75-7.60Z"></path></g></g></svg>